<svg width="44" height="44" viewBox="0 0 44 44" fill="none" xmlns="http://www.w3.org/2000/svg">
<circle opacity="0.7" cx="22" cy="22" r="22" fill="url(#paint0_radial_298_30535)"/>
<g clip-path="url(#clip0_298_30535)">
<path fill-rule="evenodd" clip-rule="evenodd" d="M30.25 23.5C30.25 23.3011 30.171 23.1103 30.0303 22.9697C29.8897 22.829 29.6989 22.75 29.5 22.75H14.5C14.3011 22.75 14.1103 22.829 13.9697 22.9697C13.829 23.1103 13.75 23.3011 13.75 23.5V31.75C13.7498 32.0455 13.8079 32.3382 13.9209 32.6113C14.0339 32.8843 14.1996 33.1325 14.4086 33.3414C14.6175 33.5504 14.8657 33.7161 15.1387 33.8291C15.4118 33.9421 15.7045 34.0002 16 34H28C28.597 34 29.17 33.7623 29.59 33.34C30.0123 32.9193 30.25 32.3463 30.25 31.75V23.5ZM30.25 12.25C30.25 11.653 30.013 11.0808 29.5908 10.6593C29.382 10.4502 29.134 10.2843 28.861 10.1712C28.5881 10.0581 28.2955 9.9999 28 10H16C15.403 10 14.8308 10.237 14.4093 10.6593C14.2002 10.868 14.0343 11.116 13.9212 11.389C13.8081 11.6619 13.7499 11.9545 13.75 12.25V19C13.75 19.597 13.987 20.1693 14.4093 20.5908C14.618 20.7998 14.866 20.9657 15.139 21.0788C15.4119 21.1919 15.7045 21.2501 16 21.25H28C28.597 21.25 29.1693 21.013 29.5908 20.5908C29.7998 20.382 29.9657 20.134 30.0788 19.861C30.1919 19.5881 30.2501 19.2955 30.25 19V12.25ZM19 13C18.4133 13.0151 17.8558 13.2588 17.4462 13.6792C17.0366 14.0995 16.8073 14.6631 16.8073 15.25C16.8073 15.8369 17.0366 16.4005 17.4462 16.8208C17.8558 17.2411 18.4133 17.4849 19 17.5C19.5867 17.4849 20.1442 17.2411 20.5538 16.8208C20.9634 16.4005 21.1927 15.8369 21.1927 15.25C21.1927 14.6631 20.9634 14.0995 20.5538 13.6792C20.1442 13.2588 19.5867 13.0151 19 13ZM25 13C24.4133 13.0151 23.8558 13.2588 23.4462 13.6792C23.0366 14.0995 22.8073 14.6631 22.8073 15.25C22.8073 15.8369 23.0366 16.4005 23.4462 16.8208C23.8558 17.2411 24.4133 17.4849 25 17.5C25.5867 17.4849 26.1442 17.2411 26.5538 16.8208C26.9634 16.4005 27.1927 15.8369 27.1927 15.25C27.1927 14.6631 26.9634 14.0995 26.5538 13.6792C26.1442 13.2588 25.5867 13.0151 25 13ZM31.6218 22.75H31.75C32.347 22.75 32.9193 22.987 33.3408 23.4092C33.763 23.8307 34 24.403 34 25V29.5C34 30.097 33.763 30.6693 33.3408 31.0908C33.132 31.2998 32.884 31.4657 32.611 31.5788C32.3381 31.6919 32.0455 31.7501 31.75 31.75V23.5C31.75 23.2367 31.705 22.9847 31.6218 22.75ZM12.3783 22.75H12.25C11.653 22.75 11.0808 22.987 10.6593 23.4092C10.4502 23.618 10.2843 23.866 10.1712 24.139C10.0581 24.4119 9.9999 24.7045 10 25V29.5C10 30.097 10.237 30.6693 10.6593 31.0908C10.868 31.2998 11.116 31.4657 11.389 31.5788C11.6619 31.6919 11.9545 31.7501 12.25 31.75V23.5C12.25 23.2367 12.295 22.9847 12.3783 22.75Z" fill="white"/>
</g>
<defs>
<radialGradient id="paint0_radial_298_30535" cx="0" cy="0" r="1" gradientUnits="userSpaceOnUse" gradientTransform="translate(15.4759 22.1517) rotate(73.3738) scale(22.8016)">
<stop stop-color="#ACA6EE" stop-opacity="0.99"/>
<stop offset="1" stop-color="#4C459F"/>
</radialGradient>
<clipPath id="clip0_298_30535">
<rect width="24" height="24" fill="white" transform="translate(10 10)"/>
</clipPath>
</defs>
</svg>
